<svg xmlns="http://www.w3.org/2000/svg" xmlns:xlink="http://www.w3.org/1999/xlink" width="500" zoomAndPan="magnify" viewBox="0 0 375 374.999991" height="500" preserveAspectRatio="xMidYMid meet" version="1.0"><defs><clipPath id="b986324abb"><path d="M 92.5625 88.207031 L 282.300781 88.207031 L 282.300781 286.957031 L 92.5625 286.957031 Z M 92.5625 88.207031 " clip-rule="nonzero"/></clipPath><clipPath id="9d121d691d"><path d="M 192.597656 88.269531 C 200.496094 88.746094 207.4375 93.125 208.285156 98.484375 C 209.023438 104.546875 202.496094 109.476562 193.679688 109.113281 C 184.734375 108.964844 177.621094 103.546875 177.785156 97.40625 C 177.980469 91.996094 184.636719 88.089844 192.597656 88.269531 M 219.6875 270.789062 C 226.117188 269.753906 230.074219 272.359375 228.71875 276.292969 C 227.371094 279.667969 221.617188 283.214844 215.9375 284.414062 C 209.964844 285.441406 205.539062 283.640625 206.242188 280.070312 C 206.898438 275.964844 212.949219 271.679688 219.6875 270.789062 Z M 244.820312 228.839844 C 245.996094 228.097656 247.210938 227.449219 248.414062 226.957031 C 252.882812 222.992188 256.414062 217.3125 258.261719 211.054688 C 260.160156 204.125 259.957031 197 257.742188 191.089844 C 257.757812 191.167969 257.757812 191.167969 257.773438 191.167969 C 253.839844 185.78125 251.992188 178.007812 253.484375 170.390625 C 255.464844 158.894531 264.015625 153.269531 272.054688 157.355469 C 278.84375 161.289062 283.035156 172.3125 282.007812 182.460938 C 281.007812 189.21875 277.851562 194.492188 273.699219 196.640625 C 273.722656 196.644531 273.722656 196.644531 273.738281 196.644531 C 270.144531 200.351562 267.039062 206.183594 265.230469 212.742188 C 264.183594 216.308594 263.605469 219.824219 263.507812 223.054688 C 263.070312 230.320312 265.332031 229.363281 266.042969 234.441406 C 266.496094 238.734375 264.882812 244.144531 261.457031 249.25 C 256.601562 256.179688 248.757812 261.542969 241.984375 261.90625 C 227.21875 261.417969 235.148438 249.378906 227.820312 241.160156 C 226.007812 239.085938 223.675781 237.28125 220.929688 235.871094 C 217.664062 234.246094 214.050781 233.21875 210.285156 232.878906 C 197.101562 231.484375 187.65625 238.367188 183.992188 250.328125 C 182.988281 253.367188 182.746094 256.382812 183.074219 259.210938 C 183.28125 261.386719 185.78125 266.78125 185.78125 266.773438 C 190.402344 270.488281 192.234375 275.375 190.183594 279.761719 C 187.0625 285.535156 176.867188 288.171875 166.839844 286.363281 C 156.800781 283.945312 149.4375 277.398438 150.640625 270.988281 C 151.285156 268.074219 153.351562 265.621094 156.402344 263.890625 C 161.75 260.6875 163.234375 262.75 168.742188 257.09375 C 171.0625 254.578125 172.859375 251.453125 173.882812 247.914062 C 179.71875 227.191406 161.347656 225 165.949219 206.777344 C 169.308594 193.867188 182.71875 186.109375 195.800781 189.609375 C 195.816406 189.617188 195.816406 189.617188 195.839844 189.621094 C 198.058594 190.164062 200.230469 191.019531 202.296875 192.207031 C 219.1875 202.015625 206.667969 216.359375 226.410156 227.148438 C 232.265625 230.203125 238.875 230.761719 244.875 228.800781 C 244.824219 228.84375 244.824219 228.84375 244.820312 228.839844 Z M 153.429688 149.769531 C 163.214844 155.074219 171.914062 154.214844 179.457031 147.300781 C 186.933594 140.589844 183.855469 139.757812 188.785156 133.695312 C 191.292969 130.648438 194.996094 128.402344 200.921875 127.113281 C 227.570312 122.445312 241.546875 164.199219 214.207031 171.242188 C 206.949219 173.125 201.664062 172.203125 197.117188 169.566406 C 190.179688 165.585938 193.378906 164.957031 184.152344 162.535156 C 173.742188 159.875 165.863281 163.570312 159.578125 173.726562 C 157.171875 181.925781 150.785156 188.351562 142.933594 190.421875 C 142.925781 190.421875 142.925781 190.421875 142.917969 190.425781 C 131.191406 193.695312 119.835938 186.226562 117.203125 174.035156 C 115.734375 166.429688 118.007812 158.605469 122.691406 152.914062 C 130.085938 144.371094 133.324219 142.613281 135.027344 130.25 C 135.671875 126.152344 135.394531 122.425781 134.136719 119.4375 C 132.261719 114.769531 131.027344 115.882812 128.386719 113.304688 C 126.113281 111.117188 125.304688 108.023438 126.5 104.355469 C 129.019531 97.75 138.191406 91.195312 147.390625 89.011719 C 157.242188 87.328125 164.726562 91.171875 163.902344 98.347656 C 163.585938 101.203125 162.203125 104.078125 159.925781 106.699219 C 154.8125 112.878906 152.359375 110.851562 147.679688 119.09375 C 145.96875 122.246094 144.851562 125.757812 144.527344 129.371094 C 143.757812 139.644531 146.765625 143.75 153.429688 149.769531 Z M 112.289062 205.363281 C 122.324219 205.898438 131.589844 216.039062 132.371094 227.601562 C 133.433594 238.582031 126.164062 245.6875 116.808594 244.039062 C 108.351562 242.054688 100.625 232.914062 98.863281 223.117188 C 97.554688 212.8125 103.25 204.640625 112.289062 205.363281 Z M 104.691406 126.609375 C 110.269531 124.953125 114.085938 129.242188 112.832031 136.503906 C 111.777344 144.121094 105.78125 151.253906 99.828125 152.203125 C 94.535156 153.175781 91.671875 148.242188 93.085938 141.324219 C 94.710938 134.832031 99.734375 128.359375 104.691406 126.609375 Z M 246.785156 113.132812 C 251.917969 114.570312 257.070312 119.839844 258.449219 125.035156 C 259.792969 130.6875 256.554688 134.535156 251.046875 133.503906 C 245.191406 132.59375 239.460938 126.773438 238.527344 120.769531 C 237.519531 115.140625 241.269531 111.792969 246.785156 113.132812 Z M 246.785156 113.132812 " clip-rule="nonzero"/></clipPath><linearGradient x1="435.929374" gradientTransform="matrix(0.444354, 0, 0, -0.445047, 91.674524, 683.797834)" y1="1331.203091" x2="-4.745441" gradientUnits="userSpaceOnUse" y2="898.549702" id="6918d0810e"><stop stop-opacity="1" stop-color="rgb(5.099487%, 93.728638%, 96.469116%)" offset="0"/><stop stop-opacity="1" stop-color="rgb(5.099487%, 93.728638%, 96.469116%)" offset="0.125"/><stop stop-opacity="1" stop-color="rgb(5.099487%, 93.728638%, 96.469116%)" offset="0.1875"/><stop stop-opacity="1" stop-color="rgb(5.099487%, 93.728638%, 96.469116%)" offset="0.21875"/><stop stop-opacity="1" stop-color="rgb(5.099487%, 93.728638%, 96.469116%)" offset="0.226562"/><stop stop-opacity="1" stop-color="rgb(5.477905%, 93.351746%, 96.473694%)" offset="0.230469"/><stop stop-opacity="1" stop-color="rgb(5.857849%, 92.974854%, 96.478271%)" offset="0.234375"/><stop stop-opacity="1" stop-color="rgb(6.504822%, 92.329407%, 96.485901%)" offset="0.238281"/><stop stop-opacity="1" stop-color="rgb(7.151794%, 91.685486%, 96.495056%)" offset="0.242188"/><stop stop-opacity="1" stop-color="rgb(7.797241%, 91.041565%, 96.502686%)" offset="0.246094"/><stop stop-opacity="1" stop-color="rgb(8.444214%, 90.397644%, 96.511841%)" offset="0.25"/><stop stop-opacity="1" stop-color="rgb(9.091187%, 89.752197%, 96.51947%)" offset="0.253906"/><stop stop-opacity="1" stop-color="rgb(9.738159%, 89.108276%, 96.5271%)" offset="0.257812"/><stop stop-opacity="1" stop-color="rgb(10.385132%, 88.464355%, 96.534729%)" offset="0.261719"/><stop stop-opacity="1" stop-color="rgb(11.032104%, 87.820435%, 96.543884%)" offset="0.265625"/><stop stop-opacity="1" stop-color="rgb(11.679077%, 87.176514%, 96.551514%)" offset="0.269531"/><stop stop-opacity="1" stop-color="rgb(12.32605%, 86.532593%, 96.560669%)" offset="0.273438"/><stop stop-opacity="1" stop-color="rgb(12.973022%, 85.887146%, 96.568298%)" offset="0.277344"/><stop stop-opacity="1" stop-color="rgb(13.619995%, 85.243225%, 96.575928%)" offset="0.28125"/><stop stop-opacity="1" stop-color="rgb(14.265442%, 84.599304%, 96.583557%)" offset="0.285156"/><stop stop-opacity="1" stop-color="rgb(14.912415%, 83.955383%, 96.592712%)" offset="0.289062"/><stop stop-opacity="1" stop-color="rgb(15.559387%, 83.311462%, 96.600342%)" offset="0.292969"/><stop stop-opacity="1" stop-color="rgb(16.20636%, 82.667542%, 96.609497%)" offset="0.296875"/><stop stop-opacity="1" stop-color="rgb(16.853333%, 82.022095%, 96.617126%)" offset="0.300781"/><stop stop-opacity="1" stop-color="rgb(17.500305%, 81.378174%, 96.624756%)" offset="0.304687"/><stop stop-opacity="1" stop-color="rgb(18.147278%, 80.734253%, 96.632385%)" offset="0.308594"/><stop stop-opacity="1" stop-color="rgb(18.79425%, 80.090332%, 96.641541%)" offset="0.3125"/><stop stop-opacity="1" stop-color="rgb(19.441223%, 79.444885%, 96.64917%)" offset="0.316406"/><stop stop-opacity="1" stop-color="rgb(20.088196%, 78.800964%, 96.658325%)" offset="0.320312"/><stop stop-opacity="1" stop-color="rgb(20.733643%, 78.157043%, 96.665955%)" offset="0.324219"/><stop stop-opacity="1" stop-color="rgb(21.380615%, 77.513123%, 96.673584%)" offset="0.328125"/><stop stop-opacity="1" stop-color="rgb(22.027588%, 76.869202%, 96.681213%)" offset="0.332031"/><stop stop-opacity="1" stop-color="rgb(22.674561%, 76.225281%, 96.690369%)" offset="0.335938"/><stop stop-opacity="1" stop-color="rgb(23.321533%, 75.579834%, 96.697998%)" offset="0.339844"/><stop stop-opacity="1" stop-color="rgb(23.968506%, 74.935913%, 96.707153%)" offset="0.34375"/><stop stop-opacity="1" stop-color="rgb(24.615479%, 74.291992%, 96.714783%)" offset="0.347656"/><stop stop-opacity="1" stop-color="rgb(25.262451%, 73.648071%, 96.722412%)" offset="0.351562"/><stop stop-opacity="1" stop-color="rgb(25.909424%, 73.00415%, 96.730042%)" offset="0.355469"/><stop stop-opacity="1" stop-color="rgb(26.556396%, 72.360229%, 96.739197%)" offset="0.359375"/><stop stop-opacity="1" stop-color="rgb(27.201843%, 71.714783%, 96.746826%)" offset="0.363281"/><stop stop-opacity="1" stop-color="rgb(27.848816%, 71.070862%, 96.755981%)" offset="0.367188"/><stop stop-opacity="1" stop-color="rgb(28.495789%, 70.426941%, 96.763611%)" offset="0.371094"/><stop stop-opacity="1" stop-color="rgb(29.142761%, 69.78302%, 96.77124%)" offset="0.375"/><stop stop-opacity="1" stop-color="rgb(29.789734%, 69.139099%, 96.77887%)" offset="0.378906"/><stop stop-opacity="1" stop-color="rgb(30.436707%, 68.495178%, 96.788025%)" offset="0.382812"/><stop stop-opacity="1" stop-color="rgb(31.083679%, 67.849731%, 96.795654%)" offset="0.386719"/><stop stop-opacity="1" stop-color="rgb(31.730652%, 67.205811%, 96.80481%)" offset="0.390625"/><stop stop-opacity="1" stop-color="rgb(32.377625%, 66.56189%, 96.812439%)" offset="0.394531"/><stop stop-opacity="1" stop-color="rgb(33.024597%, 65.917969%, 96.820068%)" offset="0.398437"/><stop stop-opacity="1" stop-color="rgb(33.670044%, 65.272522%, 96.827698%)" offset="0.402344"/><stop stop-opacity="1" stop-color="rgb(34.317017%, 64.628601%, 96.836853%)" offset="0.40625"/><stop stop-opacity="1" stop-color="rgb(34.963989%, 63.98468%, 96.844482%)" offset="0.410156"/><stop stop-opacity="1" stop-color="rgb(35.610962%, 63.340759%, 96.853638%)" offset="0.414062"/><stop stop-opacity="1" stop-color="rgb(36.257935%, 62.696838%, 96.861267%)" offset="0.417969"/><stop stop-opacity="1" stop-color="rgb(36.904907%, 62.052917%, 96.870422%)" offset="0.421875"/><stop stop-opacity="1" stop-color="rgb(37.55188%, 61.407471%, 96.878052%)" offset="0.425781"/><stop stop-opacity="1" stop-color="rgb(38.198853%, 60.76355%, 96.885681%)" offset="0.429688"/><stop stop-opacity="1" stop-color="rgb(38.845825%, 60.119629%, 96.893311%)" offset="0.433594"/><stop stop-opacity="1" stop-color="rgb(39.492798%, 59.475708%, 96.902466%)" offset="0.4375"/><stop stop-opacity="1" stop-color="rgb(40.138245%, 58.831787%, 96.910095%)" offset="0.441406"/><stop stop-opacity="1" stop-color="rgb(40.785217%, 58.187866%, 96.91925%)" offset="0.445312"/><stop stop-opacity="1" stop-color="rgb(41.43219%, 57.542419%, 96.92688%)" offset="0.449219"/><stop stop-opacity="1" stop-color="rgb(42.079163%, 56.898499%, 96.934509%)" offset="0.453125"/><stop stop-opacity="1" stop-color="rgb(42.726135%, 56.254578%, 96.942139%)" offset="0.457031"/><stop stop-opacity="1" stop-color="rgb(43.373108%, 55.610657%, 96.951294%)" offset="0.460938"/><stop stop-opacity="1" stop-color="rgb(44.020081%, 54.96521%, 96.958923%)" offset="0.464844"/><stop stop-opacity="1" stop-color="rgb(44.667053%, 54.321289%, 96.968079%)" offset="0.46875"/><stop stop-opacity="1" stop-color="rgb(45.314026%, 53.677368%, 96.975708%)" offset="0.472656"/><stop stop-opacity="1" stop-color="rgb(45.960999%, 53.033447%, 96.983337%)" offset="0.476562"/><stop stop-opacity="1" stop-color="rgb(46.607971%, 52.389526%, 96.990967%)" offset="0.480469"/><stop stop-opacity="1" stop-color="rgb(47.254944%, 51.745605%, 97.000122%)" offset="0.484375"/><stop stop-opacity="1" stop-color="rgb(47.900391%, 51.100159%, 97.007751%)" offset="0.488281"/><stop stop-opacity="1" stop-color="rgb(48.547363%, 50.456238%, 97.016907%)" offset="0.492187"/><stop stop-opacity="1" stop-color="rgb(49.194336%, 49.812317%, 97.024536%)" offset="0.496094"/><stop stop-opacity="1" stop-color="rgb(49.841309%, 49.168396%, 97.032166%)" offset="0.5"/><stop stop-opacity="1" stop-color="rgb(50.488281%, 48.524475%, 97.039795%)" offset="0.503906"/><stop stop-opacity="1" stop-color="rgb(51.135254%, 47.880554%, 97.04895%)" offset="0.507812"/><stop stop-opacity="1" stop-color="rgb(51.782227%, 47.235107%, 97.05658%)" offset="0.511719"/><stop stop-opacity="1" stop-color="rgb(52.429199%, 46.591187%, 97.065735%)" offset="0.515625"/><stop stop-opacity="1" stop-color="rgb(53.076172%, 45.947266%, 97.073364%)" offset="0.519531"/><stop stop-opacity="1" stop-color="rgb(53.723145%, 45.303345%, 97.080994%)" offset="0.523438"/><stop stop-opacity="1" stop-color="rgb(54.368591%, 44.659424%, 97.088623%)" offset="0.527344"/><stop stop-opacity="1" stop-color="rgb(55.015564%, 44.015503%, 97.097778%)" offset="0.53125"/><stop stop-opacity="1" stop-color="rgb(55.662537%, 43.370056%, 97.105408%)" offset="0.535156"/><stop stop-opacity="1" stop-color="rgb(56.309509%, 42.726135%, 97.114563%)" offset="0.539062"/><stop stop-opacity="1" stop-color="rgb(56.956482%, 42.082214%, 97.122192%)" offset="0.542969"/><stop stop-opacity="1" stop-color="rgb(57.603455%, 41.438293%, 97.129822%)" offset="0.546875"/><stop stop-opacity="1" stop-color="rgb(58.250427%, 40.792847%, 97.137451%)" offset="0.550781"/><stop stop-opacity="1" stop-color="rgb(58.8974%, 40.148926%, 97.146606%)" offset="0.554688"/><stop stop-opacity="1" stop-color="rgb(59.544373%, 39.505005%, 97.154236%)" offset="0.558594"/><stop stop-opacity="1" stop-color="rgb(60.191345%, 38.861084%, 97.163391%)" offset="0.5625"/><stop stop-opacity="1" stop-color="rgb(60.836792%, 38.217163%, 97.171021%)" offset="0.566406"/><stop stop-opacity="1" stop-color="rgb(61.483765%, 37.573242%, 97.17865%)" offset="0.570312"/><stop stop-opacity="1" stop-color="rgb(62.130737%, 36.927795%, 97.186279%)" offset="0.574219"/><stop stop-opacity="1" stop-color="rgb(62.77771%, 36.283875%, 97.195435%)" offset="0.578125"/><stop stop-opacity="1" stop-color="rgb(63.424683%, 35.639954%, 97.203064%)" offset="0.582031"/><stop stop-opacity="1" stop-color="rgb(64.071655%, 34.996033%, 97.212219%)" offset="0.585938"/><stop stop-opacity="1" stop-color="rgb(64.718628%, 34.352112%, 97.219849%)" offset="0.589844"/><stop stop-opacity="1" stop-color="rgb(65.365601%, 33.708191%, 97.227478%)" offset="0.59375"/><stop stop-opacity="1" stop-color="rgb(66.012573%, 33.062744%, 97.235107%)" offset="0.597656"/><stop stop-opacity="1" stop-color="rgb(66.659546%, 32.418823%, 97.244263%)" offset="0.601562"/><stop stop-opacity="1" stop-color="rgb(67.304993%, 31.774902%, 97.251892%)" offset="0.605469"/><stop stop-opacity="1" stop-color="rgb(67.951965%, 31.130981%, 97.261047%)" offset="0.609375"/><stop stop-opacity="1" stop-color="rgb(68.598938%, 30.485535%, 97.268677%)" offset="0.613281"/><stop stop-opacity="1" stop-color="rgb(69.245911%, 29.841614%, 97.276306%)" offset="0.617187"/><stop stop-opacity="1" stop-color="rgb(69.892883%, 29.197693%, 97.283936%)" offset="0.621094"/><stop stop-opacity="1" stop-color="rgb(70.539856%, 28.553772%, 97.293091%)" offset="0.625"/><stop stop-opacity="1" stop-color="rgb(71.186829%, 27.909851%, 97.30072%)" offset="0.628906"/><stop stop-opacity="1" stop-color="rgb(71.833801%, 27.26593%, 97.309875%)" offset="0.632812"/><stop stop-opacity="1" stop-color="rgb(72.480774%, 26.620483%, 97.317505%)" offset="0.636719"/><stop stop-opacity="1" stop-color="rgb(73.127747%, 25.976562%, 97.325134%)" offset="0.640625"/><stop stop-opacity="1" stop-color="rgb(73.773193%, 25.332642%, 97.332764%)" offset="0.644531"/><stop stop-opacity="1" stop-color="rgb(74.420166%, 24.688721%, 97.341919%)" offset="0.648438"/><stop stop-opacity="1" stop-color="rgb(75.067139%, 24.0448%, 97.349548%)" offset="0.652344"/><stop stop-opacity="1" stop-color="rgb(75.714111%, 23.400879%, 97.358704%)" offset="0.65625"/><stop stop-opacity="1" stop-color="rgb(76.361084%, 22.755432%, 97.366333%)" offset="0.660156"/><stop stop-opacity="1" stop-color="rgb(77.008057%, 22.111511%, 97.373962%)" offset="0.664062"/><stop stop-opacity="1" stop-color="rgb(77.655029%, 21.46759%, 97.381592%)" offset="0.667969"/><stop stop-opacity="1" stop-color="rgb(78.302002%, 20.823669%, 97.390747%)" offset="0.671875"/><stop stop-opacity="1" stop-color="rgb(78.948975%, 20.179749%, 97.398376%)" offset="0.675781"/><stop stop-opacity="1" stop-color="rgb(79.595947%, 19.535828%, 97.407532%)" offset="0.679688"/><stop stop-opacity="1" stop-color="rgb(80.241394%, 18.890381%, 97.415161%)" offset="0.683594"/><stop stop-opacity="1" stop-color="rgb(80.888367%, 18.24646%, 97.422791%)" offset="0.6875"/><stop stop-opacity="1" stop-color="rgb(81.535339%, 17.602539%, 97.43042%)" offset="0.691406"/><stop stop-opacity="1" stop-color="rgb(82.182312%, 16.958618%, 97.439575%)" offset="0.695312"/><stop stop-opacity="1" stop-color="rgb(82.829285%, 16.313171%, 97.447205%)" offset="0.699219"/><stop stop-opacity="1" stop-color="rgb(83.476257%, 15.66925%, 97.45636%)" offset="0.703125"/><stop stop-opacity="1" stop-color="rgb(84.12323%, 15.02533%, 97.463989%)" offset="0.707031"/><stop stop-opacity="1" stop-color="rgb(84.770203%, 14.381409%, 97.471619%)" offset="0.710937"/><stop stop-opacity="1" stop-color="rgb(85.417175%, 13.737488%, 97.479248%)" offset="0.714844"/><stop stop-opacity="1" stop-color="rgb(86.064148%, 13.093567%, 97.488403%)" offset="0.71875"/><stop stop-opacity="1" stop-color="rgb(86.709595%, 12.44812%, 97.496033%)" offset="0.722656"/><stop stop-opacity="1" stop-color="rgb(87.356567%, 11.804199%, 97.505188%)" offset="0.726562"/><stop stop-opacity="1" stop-color="rgb(88.00354%, 11.160278%, 97.512817%)" offset="0.730469"/><stop stop-opacity="1" stop-color="rgb(88.650513%, 10.516357%, 97.521973%)" offset="0.734375"/><stop stop-opacity="1" stop-color="rgb(89.297485%, 9.872437%, 97.529602%)" offset="0.738281"/><stop stop-opacity="1" stop-color="rgb(89.944458%, 9.228516%, 97.537231%)" offset="0.742188"/><stop stop-opacity="1" stop-color="rgb(90.591431%, 8.583069%, 97.544861%)" offset="0.746094"/><stop stop-opacity="1" stop-color="rgb(91.238403%, 7.939148%, 97.554016%)" offset="0.75"/><stop stop-opacity="1" stop-color="rgb(91.885376%, 7.295227%, 97.561646%)" offset="0.753906"/><stop stop-opacity="1" stop-color="rgb(92.532349%, 6.651306%, 97.570801%)" offset="0.757812"/><stop stop-opacity="1" stop-color="rgb(93.177795%, 6.007385%, 97.57843%)" offset="0.761719"/><stop stop-opacity="1" stop-color="rgb(93.824768%, 5.363464%, 97.58606%)" offset="0.765625"/><stop stop-opacity="1" stop-color="rgb(94.471741%, 4.718018%, 97.593689%)" offset="0.769531"/><stop stop-opacity="1" stop-color="rgb(95.118713%, 4.074097%, 97.602844%)" offset="0.773438"/><stop stop-opacity="1" stop-color="rgb(95.765686%, 3.430176%, 97.610474%)" offset="0.777344"/><stop stop-opacity="1" stop-color="rgb(96.412659%, 2.786255%, 97.619629%)" offset="0.78125"/><stop stop-opacity="1" stop-color="rgb(97.059631%, 2.140808%, 97.627258%)" offset="0.785156"/><stop stop-opacity="1" stop-color="rgb(97.706604%, 1.496887%, 97.634888%)" offset="0.789062"/><stop stop-opacity="1" stop-color="rgb(98.262024%, 0.942993%, 97.640991%)" offset="0.792969"/><stop stop-opacity="1" stop-color="rgb(98.81897%, 0.389099%, 97.648621%)" offset="0.796875"/><stop stop-opacity="1" stop-color="rgb(98.81897%, 0.389099%, 97.648621%)" offset="0.8125"/><stop stop-opacity="1" stop-color="rgb(98.81897%, 0.389099%, 97.648621%)" offset="0.875"/><stop stop-opacity="1" stop-color="rgb(98.81897%, 0.389099%, 97.648621%)" offset="1"/></linearGradient></defs><rect x="-37.5" width="450" fill="#ffffff" y="-37.499999" height="449.999989" fill-opacity="1"/><rect x="-37.5" width="450" fill="#000000" y="-37.499999" height="449.999989" fill-opacity="1"/><g clip-path="url(#b986324abb)"><g clip-path="url(#9d121d691d)"><path fill="url(#6918d0810e)" d="M 92.5625 286.957031 L 92.5625 88.207031 L 282.300781 88.207031 L 282.300781 286.957031 Z M 92.5625 286.957031 " fill-rule="nonzero"/></g></g><path fill="#000000" d="M 106.230469 113.832031 C 106.667969 113.835938 107.101562 113.808594 107.535156 113.761719 C 107.96875 113.710938 108.398438 113.636719 108.824219 113.539062 C 109.246094 113.4375 109.664062 113.316406 110.074219 113.167969 C 110.488281 113.019531 110.886719 112.851562 111.277344 112.65625 C 111.667969 112.460938 112.046875 112.246094 112.414062 112.007812 C 112.777344 111.769531 113.128906 111.511719 113.464844 111.234375 C 113.800781 110.957031 114.121094 110.660156 114.421875 110.34375 C 114.722656 110.027344 115.007812 109.695312 115.269531 109.347656 C 115.53125 109 115.773438 108.636719 115.996094 108.261719 C 116.214844 107.886719 116.414062 107.496094 116.589844 107.097656 C 116.769531 106.699219 116.921875 106.292969 117.050781 105.875 C 117.179688 105.457031 117.28125 105.035156 117.363281 104.605469 C 117.441406 104.175781 117.496094 103.746094 117.527344 103.308594 C 117.558594 102.875 117.5625 102.4375 117.542969 102.003906 C 117.519531 101.566406 117.476562 101.132812 117.40625 100.703125 C 117.335938 100.273438 117.238281 99.847656 117.117188 99.425781 C 117 99.007812 116.855469 98.597656 116.6875 98.191406 C 116.519531 97.789062 116.328125 97.398438 116.117188 97.019531 C 115.902344 96.636719 115.667969 96.269531 115.414062 95.914062 C 115.15625 95.5625 114.882812 95.222656 114.589844 94.902344 C 114.292969 94.582031 113.980469 94.277344 113.652344 93.992188 C 113.320312 93.707031 112.976562 93.441406 112.617188 93.195312 C 112.253906 92.949219 111.882812 92.726562 111.496094 92.523438 C 111.109375 92.320312 110.710938 92.140625 110.304688 91.984375 C 109.894531 91.828125 109.480469 91.695312 109.058594 91.585938 C 108.636719 91.480469 108.207031 91.394531 107.777344 91.335938 C 107.34375 91.277344 106.910156 91.246094 106.472656 91.238281 C 106.039062 91.230469 105.601562 91.246094 105.167969 91.289062 C 104.734375 91.328125 104.304688 91.398438 103.875 91.488281 C 103.449219 91.582031 103.03125 91.695312 102.617188 91.835938 C 102.203125 91.976562 101.800781 92.140625 101.40625 92.328125 C 101.011719 92.515625 100.628906 92.726562 100.261719 92.957031 L 73.960938 66.609375 C 74.726562 65.632812 75.394531 64.59375 75.972656 63.496094 C 76.546875 62.398438 77.019531 61.257812 77.386719 60.074219 C 77.757812 58.890625 78.015625 57.683594 78.167969 56.453125 C 78.316406 55.222656 78.355469 53.988281 78.28125 52.75 C 78.207031 51.511719 78.023438 50.289062 77.730469 49.085938 C 77.433594 47.882812 77.03125 46.714844 76.523438 45.582031 C 76.019531 44.449219 75.414062 43.375 74.710938 42.351562 C 74.007812 41.332031 73.21875 40.378906 72.347656 39.5 L 83.972656 24.640625 C 84.386719 24.835938 84.8125 25.003906 85.25 25.148438 C 85.683594 25.289062 86.125 25.40625 86.578125 25.492188 C 87.027344 25.582031 87.480469 25.644531 87.9375 25.679688 C 88.394531 25.710938 88.851562 25.71875 89.308594 25.695312 C 89.765625 25.675781 90.21875 25.625 90.671875 25.546875 C 91.125 25.46875 91.570312 25.367188 92.007812 25.234375 C 92.445312 25.101562 92.875 24.945312 93.296875 24.761719 C 93.714844 24.578125 94.121094 24.371094 94.515625 24.136719 C 94.910156 23.902344 95.289062 23.648438 95.652344 23.367188 C 96.015625 23.089844 96.363281 22.789062 96.6875 22.46875 C 97.015625 22.148438 97.324219 21.808594 97.609375 21.449219 C 97.894531 21.089844 98.15625 20.714844 98.394531 20.324219 C 98.636719 19.9375 98.851562 19.53125 99.042969 19.117188 C 99.234375 18.699219 99.398438 18.273438 99.539062 17.835938 C 99.675781 17.398438 99.789062 16.957031 99.875 16.503906 C 99.960938 16.054688 100.015625 15.601562 100.046875 15.144531 C 100.078125 14.6875 100.078125 14.230469 100.054688 13.773438 C 100.027344 13.3125 99.976562 12.859375 99.894531 12.410156 C 99.8125 11.957031 99.707031 11.511719 99.570312 11.074219 C 99.4375 10.636719 99.277344 10.210938 99.089844 9.789062 C 98.902344 9.371094 98.691406 8.96875 98.453125 8.574219 C 98.21875 8.179688 97.957031 7.804688 97.675781 7.445312 C 97.394531 7.082031 97.089844 6.738281 96.769531 6.414062 C 96.445312 6.089844 96.101562 5.789062 95.742188 5.503906 C 95.378906 5.222656 95.003906 4.960938 94.613281 4.726562 C 94.21875 4.488281 93.816406 4.277344 93.398438 4.089844 C 92.980469 3.902344 92.550781 3.738281 92.113281 3.605469 C 91.675781 3.46875 91.230469 3.359375 90.78125 3.277344 C 90.328125 3.195312 89.875 3.140625 89.417969 3.117188 C 88.960938 3.089844 88.503906 3.089844 88.046875 3.121094 C 87.589844 3.148438 87.136719 3.207031 86.683594 3.292969 C 86.234375 3.375 85.789062 3.488281 85.355469 3.625 C 84.917969 3.765625 84.492188 3.929688 84.074219 4.117188 C 83.65625 4.308594 83.253906 4.523438 82.863281 4.761719 C 82.472656 5.003906 82.097656 5.265625 81.738281 5.550781 C 81.378906 5.835938 81.039062 6.140625 80.71875 6.46875 C 80.394531 6.792969 80.09375 7.136719 79.816406 7.5 C 79.535156 7.863281 79.28125 8.242188 79.046875 8.636719 C 78.8125 9.03125 78.601562 9.4375 78.417969 9.859375 C 78.234375 10.277344 78.078125 10.707031 77.945312 11.144531 C 77.8125 11.585938 77.707031 12.03125 77.628906 12.480469 C 77.550781 12.933594 77.5 13.386719 77.480469 13.84375 C 77.457031 14.300781 77.460938 14.761719 77.496094 15.21875 C 77.527344 15.675781 77.589844 16.128906 77.675781 16.578125 C 77.765625 17.027344 77.878906 17.46875 78.019531 17.90625 C 78.164062 18.339844 78.332031 18.765625 78.523438 19.183594 C 78.71875 19.597656 78.9375 20 79.179688 20.386719 C 79.421875 20.777344 79.6875 21.148438 79.976562 21.507812 L 68.335938 36.367188 C 67.453125 35.835938 66.539062 35.375 65.585938 34.984375 C 64.636719 34.589844 63.664062 34.273438 62.664062 34.027344 C 61.667969 33.78125 60.65625 33.613281 59.632812 33.519531 C 58.609375 33.425781 57.585938 33.410156 56.558594 33.472656 C 55.53125 33.53125 54.515625 33.667969 53.511719 33.882812 C 52.503906 34.097656 51.523438 34.382812 50.558594 34.746094 C 49.597656 35.109375 48.667969 35.539062 47.769531 36.042969 C 46.875 36.542969 46.019531 37.109375 45.207031 37.738281 L 26.289062 18.695312 C 26.53125 18.308594 26.753906 17.902344 26.949219 17.488281 C 27.144531 17.074219 27.3125 16.648438 27.457031 16.210938 C 27.601562 15.773438 27.71875 15.328125 27.808594 14.878906 C 27.898438 14.429688 27.960938 13.972656 27.996094 13.515625 C 28.03125 13.058594 28.039062 12.597656 28.019531 12.140625 C 27.996094 11.679688 27.949219 11.222656 27.871094 10.769531 C 27.796875 10.316406 27.691406 9.871094 27.5625 9.429688 C 27.429688 8.988281 27.273438 8.558594 27.089844 8.136719 C 26.90625 7.714844 26.699219 7.304688 26.464844 6.910156 C 26.234375 6.515625 25.976562 6.132812 25.699219 5.769531 C 25.417969 5.402344 25.121094 5.054688 24.796875 4.726562 C 24.476562 4.398438 24.136719 4.089844 23.777344 3.804688 C 23.417969 3.515625 23.042969 3.253906 22.652344 3.011719 C 22.261719 2.769531 21.859375 2.550781 21.441406 2.359375 C 21.023438 2.167969 20.597656 2 20.160156 1.859375 C 19.722656 1.71875 19.277344 1.605469 18.824219 1.519531 C 18.375 1.433594 17.917969 1.375 17.460938 1.34375 C 17 1.3125 16.542969 1.308594 16.085938 1.335938 C 15.625 1.359375 15.167969 1.410156 14.71875 1.492188 C 14.265625 1.570312 13.820312 1.679688 13.378906 1.8125 C 12.941406 1.949219 12.511719 2.109375 12.089844 2.296875 C 11.671875 2.480469 11.261719 2.695312 10.871094 2.929688 C 10.476562 3.167969 10.097656 3.425781 9.734375 3.707031 C 9.371094 3.988281 9.027344 4.292969 8.699219 4.617188 C 8.375 4.941406 8.070312 5.285156 7.785156 5.644531 C 7.503906 6.007812 7.242188 6.382812 7.003906 6.777344 C 6.765625 7.171875 6.550781 7.574219 6.363281 7.996094 C 6.171875 8.414062 6.011719 8.84375 5.875 9.28125 C 5.738281 9.71875 5.628906 10.167969 5.542969 10.617188 C 5.460938 11.070312 5.40625 11.527344 5.378906 11.984375 C 5.351562 12.445312 5.351562 12.902344 5.382812 13.359375 C 5.410156 13.820312 5.464844 14.273438 5.550781 14.726562 C 5.632812 15.179688 5.746094 15.625 5.882812 16.0625 C 6.023438 16.5 6.1875 16.929688 6.375 17.347656 C 6.566406 17.765625 6.78125 18.171875 7.019531 18.5625 C 7.261719 18.957031 7.523438 19.332031 7.808594 19.691406 C 8.09375 20.054688 8.398438 20.394531 8.726562 20.71875 C 9.050781 21.042969 9.398438 21.34375 9.761719 21.625 C 10.125 21.90625 10.503906 22.164062 10.898438 22.398438 C 11.292969 22.632812 11.703125 22.84375 12.121094 23.03125 C 12.542969 23.214844 12.972656 23.375 13.414062 23.507812 C 13.851562 23.640625 14.300781 23.746094 14.75 23.824219 C 15.203125 23.902344 15.660156 23.953125 16.117188 23.976562 C 16.578125 24 17.035156 23.996094 17.496094 23.964844 C 17.953125 23.933594 18.410156 23.871094 18.859375 23.785156 C 19.308594 23.695312 19.753906 23.582031 20.191406 23.441406 C 20.628906 23.296875 21.054688 23.128906 21.472656 22.9375 C 21.890625 22.742188 22.292969 22.523438 22.683594 22.28125 L 41.601562 41.320312 C 40.628906 42.5625 39.808594 43.894531 39.144531 45.324219 C 38.480469 46.757812 37.984375 48.242188 37.660156 49.785156 C 37.339844 51.332031 37.195312 52.890625 37.230469 54.46875 C 37.269531 56.042969 37.484375 57.597656 37.875 59.125 L 21.714844 65.546875 C 21.460938 65.179688 21.1875 64.832031 20.890625 64.5 C 20.597656 64.164062 20.28125 63.851562 19.949219 63.554688 C 19.617188 63.261719 19.265625 62.984375 18.902344 62.730469 C 18.535156 62.476562 18.15625 62.246094 17.765625 62.035156 C 17.371094 61.828125 16.96875 61.640625 16.554688 61.480469 C 16.136719 61.316406 15.714844 61.179688 15.285156 61.070312 C 14.855469 60.957031 14.417969 60.871094 13.976562 60.8125 C 13.535156 60.753906 13.09375 60.71875 12.648438 60.710938 C 12.203125 60.703125 11.757812 60.722656 11.316406 60.769531 C 10.875 60.8125 10.433594 60.882812 10 60.980469 C 9.566406 61.078125 9.140625 61.203125 8.71875 61.347656 C 8.300781 61.496094 7.890625 61.667969 7.488281 61.863281 C 7.089844 62.0625 6.703125 62.28125 6.332031 62.523438 C 5.957031 62.765625 5.597656 63.027344 5.257812 63.3125 C 4.914062 63.597656 4.589844 63.898438 4.28125 64.222656 C 3.976562 64.546875 3.691406 64.886719 3.421875 65.242188 C 3.15625 65.597656 2.914062 65.96875 2.691406 66.355469 C 2.46875 66.742188 2.269531 67.136719 2.09375 67.546875 C 1.917969 67.957031 1.769531 68.375 1.640625 68.800781 C 1.515625 69.230469 1.417969 69.660156 1.34375 70.101562 C 1.265625 70.539062 1.21875 70.980469 1.195312 71.425781 C 1.175781 71.871094 1.179688 72.316406 1.207031 72.757812 C 1.238281 73.203125 1.296875 73.644531 1.378906 74.082031 C 1.460938 74.519531 1.570312 74.949219 1.703125 75.375 C 1.835938 75.800781 1.992188 76.214844 2.175781 76.621094 C 2.359375 77.027344 2.566406 77.421875 2.792969 77.800781 C 3.023438 78.183594 3.273438 78.550781 3.546875 78.902344 C 3.820312 79.253906 4.113281 79.589844 4.425781 79.90625 C 4.738281 80.222656 5.066406 80.519531 5.414062 80.796875 C 5.761719 81.078125 6.125 81.332031 6.503906 81.570312 C 6.882812 81.804688 7.273438 82.015625 7.675781 82.203125 C 8.078125 82.394531 8.492188 82.558594 8.914062 82.699219 C 9.335938 82.839844 9.765625 82.953125 10.199219 83.042969 C 10.636719 83.132812 11.078125 83.195312 11.519531 83.230469 C 11.964844 83.269531 12.40625 83.277344 12.851562 83.265625 C 13.296875 83.25 13.738281 83.207031 14.179688 83.136719 C 14.621094 83.070312 15.054688 82.976562 15.484375 82.859375 C 15.910156 82.738281 16.332031 82.59375 16.742188 82.425781 C 17.15625 82.257812 17.554688 82.0625 17.945312 81.847656 C 18.332031 81.628906 18.707031 81.390625 19.070312 81.128906 C 19.429688 80.871094 19.773438 80.589844 20.101562 80.285156 C 20.429688 79.984375 20.738281 79.664062 21.027344 79.328125 C 21.316406 78.988281 21.585938 78.636719 21.832031 78.265625 C 22.078125 77.894531 22.304688 77.511719 22.507812 77.117188 C 22.710938 76.71875 22.886719 76.3125 23.042969 75.894531 C 23.195312 75.476562 23.324219 75.050781 23.429688 74.617188 C 23.53125 74.183594 23.609375 73.746094 23.660156 73.304688 C 23.714844 72.863281 23.738281 72.417969 23.738281 71.972656 C 23.730469 71.40625 23.683594 70.839844 23.59375 70.277344 L 39.757812 63.855469 C 40.113281 64.503906 40.503906 65.132812 40.925781 65.742188 C 41.351562 66.351562 41.804688 66.933594 42.292969 67.492188 C 42.777344 68.050781 43.292969 68.582031 43.839844 69.085938 C 44.382812 69.589844 44.953125 70.058594 45.546875 70.5 C 46.144531 70.941406 46.761719 71.351562 47.402344 71.726562 C 48.039062 72.097656 48.699219 72.4375 49.375 72.742188 C 50.050781 73.042969 50.742188 73.308594 51.445312 73.539062 C 52.152344 73.765625 52.867188 73.957031 53.589844 74.105469 C 54.316406 74.257812 55.046875 74.367188 55.785156 74.441406 C 56.523438 74.511719 57.261719 74.542969 58.003906 74.535156 C 58.746094 74.527344 59.484375 74.476562 60.21875 74.386719 C 60.953125 74.300781 61.683594 74.171875 62.40625 74.003906 C 63.125 73.835938 63.835938 73.628906 64.535156 73.386719 C 65.238281 73.140625 65.921875 72.859375 66.589844 72.539062 C 67.257812 72.222656 67.910156 71.867188 68.539062 71.480469 C 69.167969 71.089844 69.777344 70.667969 70.363281 70.214844 L 96.664062 96.5625 C 96.125 97.417969 95.710938 98.328125 95.421875 99.292969 C 95.128906 100.257812 94.96875 101.242188 94.941406 102.25 C 94.914062 103.257812 95.019531 104.253906 95.257812 105.234375 C 95.496094 106.210938 95.859375 107.144531 96.351562 108.023438 C 96.839844 108.90625 97.433594 109.710938 98.136719 110.433594 C 98.839844 111.152344 99.628906 111.769531 100.496094 112.28125 C 101.367188 112.792969 102.285156 113.179688 103.257812 113.445312 C 104.230469 113.710938 105.222656 113.839844 106.230469 113.839844 Z M 12.441406 78.226562 C 12.035156 78.226562 11.628906 78.183594 11.230469 78.105469 C 10.832031 78.027344 10.445312 77.910156 10.066406 77.753906 C 9.691406 77.597656 9.332031 77.40625 8.996094 77.179688 C 8.65625 76.953125 8.34375 76.699219 8.054688 76.410156 C 7.765625 76.121094 7.507812 75.808594 7.28125 75.46875 C 7.054688 75.132812 6.863281 74.773438 6.707031 74.398438 C 6.550781 74.023438 6.433594 73.636719 6.351562 73.234375 C 6.273438 72.835938 6.230469 72.433594 6.230469 72.023438 C 6.230469 71.617188 6.269531 71.214844 6.347656 70.816406 C 6.425781 70.414062 6.542969 70.027344 6.695312 69.648438 C 6.851562 69.273438 7.042969 68.914062 7.265625 68.574219 C 7.492188 68.238281 7.75 67.921875 8.035156 67.632812 C 8.324219 67.34375 8.636719 67.085938 8.972656 66.859375 C 9.3125 66.632812 9.667969 66.4375 10.042969 66.28125 C 10.417969 66.125 10.808594 66.003906 11.207031 65.925781 C 11.605469 65.84375 12.007812 65.800781 12.414062 65.800781 C 12.824219 65.796875 13.226562 65.835938 13.625 65.914062 C 14.027344 65.992188 14.414062 66.109375 14.792969 66.261719 C 15.167969 66.417969 15.527344 66.605469 15.867188 66.832031 C 16.207031 67.054688 16.519531 67.3125 16.8125 67.597656 C 17.101562 67.882812 17.359375 68.195312 17.585938 68.535156 C 17.816406 68.871094 18.007812 69.226562 18.167969 69.601562 C 18.324219 69.980469 18.445312 70.367188 18.527344 70.765625 C 18.609375 71.164062 18.648438 71.566406 18.652344 71.972656 C 18.652344 72.382812 18.613281 72.789062 18.535156 73.1875 C 18.457031 73.589844 18.339844 73.980469 18.183594 74.355469 C 18.027344 74.734375 17.835938 75.09375 17.609375 75.433594 C 17.382812 75.773438 17.125 76.089844 16.839844 76.378906 C 16.550781 76.667969 16.234375 76.925781 15.894531 77.152344 C 15.558594 77.378906 15.199219 77.574219 14.820312 77.730469 C 14.445312 77.886719 14.054688 78.003906 13.65625 78.085938 C 13.253906 78.164062 12.851562 78.207031 12.441406 78.207031 Z M 112.441406 102.554688 C 112.441406 102.960938 112.402344 103.367188 112.324219 103.765625 C 112.246094 104.164062 112.125 104.554688 111.972656 104.929688 C 111.816406 105.308594 111.625 105.667969 111.398438 106.007812 C 111.171875 106.347656 110.914062 106.660156 110.625 106.949219 C 110.335938 107.238281 110.023438 107.496094 109.683594 107.722656 C 109.347656 107.949219 108.988281 108.140625 108.613281 108.296875 C 108.234375 108.453125 107.847656 108.570312 107.445312 108.652344 C 107.046875 108.730469 106.644531 108.773438 106.234375 108.773438 C 105.828125 108.773438 105.421875 108.734375 105.023438 108.652344 C 104.621094 108.574219 104.234375 108.457031 103.855469 108.300781 C 103.480469 108.144531 103.121094 107.953125 102.78125 107.726562 C 102.441406 107.5 102.128906 107.242188 101.839844 106.953125 C 101.550781 106.667969 101.292969 106.351562 101.066406 106.011719 C 100.839844 105.675781 100.648438 105.316406 100.492188 104.9375 C 100.335938 104.5625 100.21875 104.175781 100.140625 103.773438 C 100.058594 103.375 100.019531 102.96875 100.019531 102.5625 C 100.019531 102.152344 100.058594 101.75 100.136719 101.347656 C 100.21875 100.949219 100.335938 100.5625 100.492188 100.183594 C 100.648438 99.808594 100.839844 99.449219 101.066406 99.109375 C 101.292969 98.769531 101.550781 98.457031 101.835938 98.167969 C 102.125 97.878906 102.441406 97.621094 102.777344 97.394531 C 103.117188 97.167969 103.476562 96.976562 103.851562 96.820312 C 104.230469 96.664062 104.617188 96.546875 105.019531 96.464844 C 105.417969 96.386719 105.824219 96.347656 106.230469 96.347656 C 106.636719 96.347656 107.039062 96.386719 107.4375 96.46875 C 107.835938 96.546875 108.226562 96.664062 108.601562 96.820312 C 108.976562 96.976562 109.332031 97.164062 109.671875 97.390625 C 110.011719 97.617188 110.324219 97.871094 110.613281 98.160156 C 110.898438 98.445312 111.15625 98.757812 111.382812 99.097656 C 111.609375 99.433594 111.804688 99.789062 111.960938 100.164062 C 112.117188 100.539062 112.234375 100.925781 112.316406 101.328125 C 112.398438 101.726562 112.4375 102.128906 112.441406 102.535156 Z M 88.730469 8.199219 C 89.136719 8.199219 89.539062 8.238281 89.941406 8.316406 C 90.339844 8.394531 90.730469 8.515625 91.105469 8.671875 C 91.484375 8.828125 91.839844 9.019531 92.179688 9.246094 C 92.519531 9.472656 92.832031 9.730469 93.121094 10.015625 C 93.410156 10.304688 93.667969 10.621094 93.894531 10.957031 C 94.121094 11.296875 94.3125 11.65625 94.46875 12.03125 C 94.625 12.410156 94.742188 12.796875 94.820312 13.199219 C 94.898438 13.597656 94.941406 14.003906 94.941406 14.410156 C 94.941406 14.816406 94.898438 15.222656 94.820312 15.621094 C 94.742188 16.023438 94.625 16.410156 94.46875 16.789062 C 94.3125 17.164062 94.121094 17.523438 93.894531 17.859375 C 93.667969 18.199219 93.410156 18.515625 93.121094 18.800781 C 92.832031 19.089844 92.519531 19.347656 92.179688 19.574219 C 91.839844 19.800781 91.484375 19.992188 91.105469 20.148438 C 90.730469 20.304688 90.339844 20.421875 89.941406 20.503906 C 89.539062 20.582031 89.136719 20.621094 88.730469 20.621094 C 88.320312 20.621094 87.917969 20.582031 87.515625 20.503906 C 87.117188 20.421875 86.730469 20.304688 86.351562 20.148438 C 85.976562 19.992188 85.617188 19.800781 85.277344 19.574219 C 84.9375 19.347656 84.625 19.089844 84.335938 18.800781 C 84.046875 18.515625 83.792969 18.199219 83.566406 17.859375 C 83.335938 17.523438 83.148438 17.164062 82.992188 16.789062 C 82.835938 16.410156 82.714844 16.023438 82.636719 15.621094 C 82.558594 15.222656 82.519531 14.816406 82.519531 14.410156 C 82.519531 14.003906 82.558594 13.597656 82.640625 13.199219 C 82.71875 12.800781 82.835938 12.410156 82.992188 12.035156 C 83.148438 11.65625 83.339844 11.300781 83.570312 10.960938 C 83.796875 10.621094 84.050781 10.308594 84.339844 10.019531 C 84.628906 9.734375 84.941406 9.476562 85.28125 9.25 C 85.621094 9.023438 85.976562 8.832031 86.355469 8.671875 C 86.730469 8.515625 87.117188 8.398438 87.519531 8.320312 C 87.917969 8.238281 88.320312 8.199219 88.730469 8.199219 Z M 10.535156 12.691406 C 10.535156 12.285156 10.574219 11.882812 10.652344 11.480469 C 10.734375 11.082031 10.851562 10.691406 11.007812 10.316406 C 11.164062 9.9375 11.355469 9.582031 11.582031 9.242188 C 11.808594 8.902344 12.066406 8.589844 12.351562 8.300781 C 12.640625 8.011719 12.957031 7.753906 13.292969 7.527344 C 13.632812 7.300781 13.992188 7.109375 14.367188 6.953125 C 14.746094 6.796875 15.132812 6.679688 15.535156 6.601562 C 15.933594 6.519531 16.335938 6.480469 16.746094 6.480469 C 17.152344 6.480469 17.558594 6.519531 17.957031 6.601562 C 18.355469 6.679688 18.746094 6.796875 19.121094 6.953125 C 19.5 7.109375 19.855469 7.300781 20.195312 7.527344 C 20.535156 7.753906 20.847656 8.011719 21.136719 8.300781 C 21.425781 8.589844 21.683594 8.902344 21.910156 9.242188 C 22.136719 9.582031 22.328125 9.9375 22.484375 10.316406 C 22.640625 10.691406 22.757812 11.082031 22.835938 11.480469 C 22.917969 11.882812 22.957031 12.285156 22.957031 12.691406 C 22.957031 13.101562 22.917969 13.503906 22.835938 13.90625 C 22.757812 14.304688 22.640625 14.695312 22.484375 15.070312 C 22.328125 15.449219 22.136719 15.804688 21.910156 16.144531 C 21.683594 16.484375 21.425781 16.796875 21.136719 17.085938 C 20.847656 17.375 20.535156 17.632812 20.195312 17.859375 C 19.855469 18.085938 19.5 18.277344 19.121094 18.433594 C 18.746094 18.589844 18.355469 18.707031 17.957031 18.785156 C 17.558594 18.867188 17.152344 18.90625 16.746094 18.90625 C 16.335938 18.90625 15.933594 18.867188 15.53125 18.785156 C 15.132812 18.707031 14.746094 18.589844 14.367188 18.433594 C 13.992188 18.277344 13.632812 18.085938 13.292969 17.859375 C 12.953125 17.632812 12.640625 17.375 12.351562 17.085938 C 12.0625 16.796875 11.804688 16.484375 11.578125 16.144531 C 11.351562 15.804688 11.160156 15.449219 11.003906 15.070312 C 10.847656 14.695312 10.726562 14.304688 10.648438 13.90625 C 10.566406 13.503906 10.527344 13.101562 10.527344 12.691406 Z M 42.320312 53.980469 C 42.320312 52.964844 42.417969 51.957031 42.617188 50.960938 C 42.8125 49.964844 43.105469 48.996094 43.492188 48.058594 C 43.882812 47.121094 44.355469 46.226562 44.921875 45.382812 C 45.484375 44.539062 46.125 43.757812 46.84375 43.039062 C 47.5625 42.320312 48.339844 41.679688 49.1875 41.113281 C 50.03125 40.546875 50.921875 40.070312 51.859375 39.683594 C 52.796875 39.292969 53.765625 39 54.761719 38.800781 C 55.757812 38.601562 56.761719 38.503906 57.777344 38.503906 C 58.792969 38.503906 59.796875 38.601562 60.792969 38.800781 C 61.789062 38.996094 62.757812 39.289062 63.695312 39.679688 C 64.632812 40.066406 65.527344 40.542969 66.371094 41.109375 C 67.214844 41.671875 67.996094 42.3125 68.714844 43.03125 C 69.433594 43.75 70.074219 44.53125 70.636719 45.375 C 71.203125 46.222656 71.679688 47.113281 72.066406 48.050781 C 72.453125 48.988281 72.746094 49.957031 72.945312 50.953125 C 73.144531 51.949219 73.242188 52.957031 73.242188 53.972656 C 73.242188 54.988281 73.144531 55.992188 72.945312 56.988281 C 72.746094 57.984375 72.453125 58.953125 72.0625 59.890625 C 71.675781 60.828125 71.195312 61.71875 70.632812 62.566406 C 70.066406 63.410156 69.425781 64.191406 68.707031 64.90625 C 67.988281 65.625 67.207031 66.265625 66.363281 66.832031 C 65.519531 67.394531 64.625 67.871094 63.6875 68.257812 C 62.75 68.644531 61.78125 68.9375 60.785156 69.136719 C 59.789062 69.332031 58.785156 69.433594 57.769531 69.429688 C 56.753906 69.429688 55.75 69.328125 54.753906 69.132812 C 53.761719 68.933594 52.792969 68.640625 51.859375 68.25 C 50.921875 67.863281 50.03125 67.386719 49.1875 66.820312 C 48.34375 66.257812 47.5625 65.617188 46.847656 64.902344 C 46.128906 64.183594 45.488281 63.402344 44.921875 62.558594 C 44.359375 61.71875 43.882812 60.828125 43.492188 59.890625 C 43.105469 58.953125 42.808594 57.988281 42.609375 56.992188 C 42.410156 56 42.308594 54.996094 42.308594 53.980469 Z M 42.320312 53.980469 " fill-opacity="1" fill-rule="nonzero"/></svg>